<?xml version="1.0" encoding="UTF-8"?>
<svg id="Layer_1" data-name="Layer 1" xmlns="http://www.w3.org/2000/svg" viewBox="0 0 48 48">
  <defs>
    <style>
      .cls-1 {
        fill: #000;
        stroke-width: 0px;
      }
    </style>
  </defs>
  <path class="cls-1" d="M5,14h-1c-1.105,0-2,.895-2,2v4c0,1.105.895,2,2,2h1v-8Z"/>
  <path class="cls-1" d="M44,14h-1v8h1c1.105,0,2-.895,2-2v-4c0-1.105-.895-2-2-2Z"/>
  <path class="cls-1" d="M35,2H13c-3.314,0-6,2.686-6,6v21c0,9.389,7.611,17,17,17s17-7.611,17-17V8c0-3.314-2.686-6-6-6ZM37,22c0,1.654-1.346,3-3,3H14c-1.654,0-3-1.346-3-3v-8c0-1.654,1.346-3,3-3h20c1.654,0,3,1.346,3,3v8Z"/>
  <path class="cls-1" d="M34,13H14c-.552,0-1,.449-1,1v8c0,.551.448,1,1,1h20c.552,0,1-.449,1-1v-8c0-.551-.448-1-1-1ZM22.707,20.707c-.195.195-.451.293-.707.293s-.512-.098-.707-.293l-2-2c-.391-.391-.391-1.023,0-1.414s1.023-.391,1.414,0l2,2c.391.391.391,1.023,0,1.414ZM28.707,20.707c-.195.195-.451.293-.707.293s-.512-.098-.707-.293l-4-4c-.391-.391-.391-1.023,0-1.414s1.023-.391,1.414,0l4,4c.391.391.391,1.023,0,1.414Z"/>
</svg>